<svg width="164" height="56" viewBox="0 0 164 56" fill="none" xmlns="http://www.w3.org/2000/svg">
<path d="M163.968 27.2108C165.292 46.4358 125.442 56.8376 82.3812 55.9472H81.6589C38.5179 56.8376 1.07552 44.2502 0.0321062 28.7892C-1.29222 9.56417 38.558 -0.837613 81.6188 0.0528118H82.3411C125.482 -0.837613 162.924 11.7498 163.968 27.2108Z" fill="white"/>
<path fill-rule="evenodd" clip-rule="evenodd" d="M161.6 29.7202C161.6 43.7646 125.843 54.4093 81.7391 53.4379C37.5949 52.507 1.838 40.3244 1.838 26.2799C1.838 12.2355 37.5949 1.5909 81.7391 2.56227C125.843 3.49317 161.6 15.6758 161.6 29.7202Z" fill="white"/>
<path fill-rule="evenodd" clip-rule="evenodd" d="M1.47684 26.2395C1.47684 12.1546 37.1936 1.46953 81.2576 2.35995C102.086 2.76469 121.028 5.71928 135.234 10.1714C137.842 10.9809 137.12 11.2237 134.271 10.5357C121.429 7.41918 104.172 5.67881 83.0233 5.27407C37.1936 4.3027 5.32943 16.8901 5.32943 30.0441C5.32943 33.6867 1.47684 31.1369 1.47684 26.2395Z" fill="#83D0F0"/>
<path fill-rule="evenodd" clip-rule="evenodd" d="M161.841 30.0441C161.841 44.129 126.124 54.8141 82.0602 53.9237C61.2321 53.5189 42.2902 50.5643 28.0838 46.1122C25.4753 45.3027 26.1976 45.0599 29.047 45.7479C41.8889 48.8644 59.1453 50.6048 80.2944 51.0095C126.124 51.9404 157.988 39.3531 157.988 26.1991C157.988 22.5969 161.841 25.1063 161.841 30.0441Z" fill="#83D0F0"/>
<path d="M104.14 40.1555V34.9261H106.467C107.036 34.9261 107.474 35.067 107.783 35.3489C108.091 35.6307 108.245 36.0239 108.245 36.5283C108.245 36.9189 108.146 37.2453 107.949 37.5074C107.756 37.7645 107.479 37.9401 107.118 38.034C107.373 38.1132 107.583 38.3036 107.746 38.6052L108.57 40.1555H107.334L106.453 38.4865C106.381 38.353 106.291 38.2615 106.185 38.2121C106.079 38.1577 105.954 38.1305 105.81 38.1305H105.26V40.1555H104.14ZM105.26 37.2997H106.265C106.867 37.2997 107.168 37.0525 107.168 36.5579C107.168 36.0684 106.867 35.8236 106.265 35.8236H105.26V37.2997Z" fill="#184690"/>
<path d="M112.39 40.2371C111.668 40.2371 111.116 40.0467 110.735 39.6659C110.36 39.2852 110.172 38.7189 110.172 37.9673V34.9261H111.292V37.9747C111.292 38.4 111.386 38.7214 111.574 38.939C111.762 39.1516 112.034 39.258 112.39 39.258C113.118 39.258 113.482 38.8302 113.482 37.9747V34.9261H114.587V37.9673C114.587 38.7189 114.402 39.2852 114.031 39.6659C113.66 40.0467 113.113 40.2371 112.39 40.2371Z" fill="#184690"/>
<path d="M118.435 40.2371C118.036 40.2371 117.657 40.1852 117.301 40.0813C116.949 39.9775 116.655 39.8365 116.419 39.6585L116.744 38.7536C116.971 38.9167 117.228 39.0453 117.518 39.1393C117.811 39.2332 118.117 39.2802 118.435 39.2802C118.782 39.2802 119.03 39.2258 119.18 39.117C119.334 39.0033 119.411 38.8623 119.411 38.6942C119.411 38.5508 119.358 38.4371 119.252 38.353C119.146 38.2689 118.961 38.1972 118.696 38.1379L117.879 37.9599C116.968 37.7621 116.513 37.2775 116.513 36.506C116.513 36.1747 116.6 35.8854 116.773 35.6382C116.947 35.386 117.188 35.1906 117.496 35.0522C117.809 34.9137 118.17 34.8445 118.58 34.8445C118.932 34.8445 119.262 34.8964 119.57 35.0003C119.878 35.1041 120.134 35.25 120.336 35.4379L120.011 36.2835C119.616 35.9621 119.136 35.8014 118.573 35.8014C118.269 35.8014 118.033 35.8632 117.864 35.9868C117.701 36.1055 117.619 36.2612 117.619 36.4541C117.619 36.5975 117.669 36.7137 117.771 36.8027C117.872 36.8917 118.048 36.9634 118.298 37.0178L119.115 37.1959C120.049 37.4036 120.517 37.8733 120.517 38.6052C120.517 38.9316 120.43 39.2184 120.257 39.4656C120.088 39.708 119.847 39.8983 119.534 40.0368C119.226 40.1703 118.859 40.2371 118.435 40.2371Z" fill="#184690"/>
<path d="M124.101 40.2371C123.701 40.2371 123.323 40.1852 122.966 40.0813C122.614 39.9775 122.32 39.8365 122.084 39.6585L122.41 38.7536C122.636 38.9167 122.894 39.0453 123.183 39.1393C123.477 39.2332 123.783 39.2802 124.101 39.2802C124.448 39.2802 124.696 39.2258 124.845 39.117C124.999 39.0033 125.076 38.8623 125.076 38.6942C125.076 38.5508 125.023 38.4371 124.917 38.353C124.811 38.2689 124.626 38.1972 124.361 38.1379L123.544 37.9599C122.634 37.7621 122.178 37.2775 122.178 36.506C122.178 36.1747 122.265 35.8854 122.439 35.6382C122.612 35.386 122.853 35.1906 123.161 35.0522C123.474 34.9137 123.836 34.8445 124.245 34.8445C124.597 34.8445 124.927 34.8964 125.235 35.0003C125.544 35.1041 125.799 35.25 126.002 35.4379L125.676 36.2835C125.281 35.9621 124.802 35.8014 124.238 35.8014C123.935 35.8014 123.698 35.8632 123.53 35.9868C123.366 36.1055 123.284 36.2612 123.284 36.4541C123.284 36.5975 123.335 36.7137 123.436 36.8027C123.537 36.8917 123.713 36.9634 123.963 37.0178L124.78 37.1959C125.715 37.4036 126.182 37.8733 126.182 38.6052C126.182 38.9316 126.095 39.2184 125.922 39.4656C125.753 39.708 125.512 39.8983 125.199 40.0368C124.891 40.1703 124.525 40.2371 124.101 40.2371Z" fill="#184690"/>
<path d="M127.945 40.1555V34.9261H129.065V40.1555H127.945Z" fill="#184690"/>
<path d="M130.533 40.1555L132.875 34.9261H133.778L136.12 40.1555H134.993L134.516 39.0206H132.138L131.668 40.1555H130.533ZM133.316 36.15L132.514 38.1231H134.147L133.33 36.15H133.316Z" fill="#184690"/>
<path fill-rule="evenodd" clip-rule="evenodd" d="M115.811 20.0469C115.811 19.1565 116.734 18.428 117.897 18.428C119.061 18.428 119.984 19.1565 119.984 20.0469C119.984 20.9374 119.061 21.6659 117.897 21.6659C116.774 21.6659 115.811 20.9374 115.811 20.0469Z" fill="#184690"/>
<path fill-rule="evenodd" clip-rule="evenodd" d="M24.8733 19.4397H21.1411V31.8652H29.9298C31.5351 31.8652 32.7792 31.0152 33.2206 30.1248H24.8733V19.4397Z" fill="#184690"/>
<path fill-rule="evenodd" clip-rule="evenodd" d="M83.5451 19.4397H69.2985V21.1396H74.355V31.8247H78.0872V21.1396H80.3346C81.9398 21.1801 83.2641 20.1682 83.5451 19.4397Z" fill="#184690"/>
<path fill-rule="evenodd" clip-rule="evenodd" d="M105.657 19.4397H101.925V31.8652H110.714C112.319 31.8652 113.563 31.0152 113.964 30.1248H105.657V19.4397Z" fill="#184690"/>
<path fill-rule="evenodd" clip-rule="evenodd" d="M42.2903 19.4397L33.5417 31.8652H34.6252C36.4311 31.8247 37.3541 30.9747 37.7554 30.4081L38.5982 29.1129H46.2231L47.0659 30.3676C47.8685 31.5819 49.3533 31.8652 50.1961 31.8652H52.0421L43.5744 19.4397H42.2903ZM39.7219 27.4535L42.3705 23.4466L45.0994 27.4535H39.7219Z" fill="#184690"/>
<path fill-rule="evenodd" clip-rule="evenodd" d="M90.0463 19.4397L81.2977 31.8652H82.3813C84.1872 31.8247 85.1102 30.9747 85.5115 30.4081L86.3543 29.1129H93.9792L94.8219 30.3676C95.6246 31.5819 97.1094 31.8652 97.9522 31.8652H99.7982L91.3305 19.4397H90.0463ZM87.4378 27.4535L90.0865 23.4466L92.8154 27.4535H87.4378Z" fill="#184690"/>
<path fill-rule="evenodd" clip-rule="evenodd" d="M62.2755 20.6133C65.5663 20.6943 66.9709 21.9085 67.5729 22.3537L68.4156 21.7061C66.5696 19.6419 63.3591 19.1158 61.5131 19.0753C54.6506 18.9134 51.8816 22.718 51.8414 25.5107C51.7612 29.6795 55.5736 32.1079 60.5098 32.2293C66.4492 32.3507 68.1347 29.5176 68.3755 29.1533C68.3755 29.1533 67.6531 28.9105 67.3321 28.8295C66.8505 29.2747 65.2051 30.7723 62.0348 30.6913C57.6203 30.6104 55.694 27.8986 55.7342 25.4702C55.7342 23.0418 58.0618 20.5324 62.2755 20.6133Z" fill="#184690"/>
<path fill-rule="evenodd" clip-rule="evenodd" d="M127.328 22.5562C127.368 21.1801 129.054 20.5325 131.702 20.6134C133.348 20.6539 134.913 21.1396 135.996 22.03L136.719 21.261C135.796 20.2492 133.789 19.1564 130.86 19.0754C127.047 18.954 123.636 20.2087 123.636 22.8395C123.636 27.8582 133.388 25.3084 133.388 28.6272C133.388 30.0843 131.381 30.7724 129.014 30.6914C126.325 30.6105 124.278 29.4772 123.997 28.263C123.716 28.2225 122.954 28.2225 122.793 28.2225C122.793 29.801 124.519 31.9866 129.455 32.1889C135.274 32.4318 137.2 30.0034 137.2 28.3844C137.2 23.0823 127.248 25.4703 127.328 22.5562Z" fill="#184690"/>
<path fill-rule="evenodd" clip-rule="evenodd" d="M116.051 31.865H119.784V22.2727L116.051 22.3132V31.865Z" fill="#184690"/>
</svg>
